<?xml version="1.0" encoding="utf-8"?>
<!-- Generator: Adobe Illustrator 28.0.0, SVG Export Plug-In . SVG Version: 6.00 Build 0)  -->
<svg version="1.0" id="katman_1" xmlns="http://www.w3.org/2000/svg" xmlns:xlink="http://www.w3.org/1999/xlink" x="0px" y="0px"
	 viewBox="0 0 577.35 585.52" style="enable-background:new 0 0 577.35 585.52;" xml:space="preserve">
<style type="text/css">
	.st0{fill:#0C2630;}
	.st1{fill:#FDFEF0;}
	.st2{fill:#89A8AE;}
	.st3{fill:#F2B275;}
</style>
<path class="st0" d="M188.98,567.57C125.75,543.52,76.99,502.54,42.7,444.61c-12.07-20.39-21.84-42.21-29.31-65.47
	c-20.37-63.41-17-132.55,6.77-194.36c18.21-47.34,49.73-89.83,88.67-121.62C166.78,15.85,248.28-7.22,322.5,1.99
	c44.97,5.59,90.21,21.43,127.52,47.19c52.54,36.28,92.22,88.87,112.3,149.59c22.88,69.18,19.41,141.81-8.81,208.56
	c-30.72,72.66-87.56,129.57-161.24,158.6C327.76,591.35,253.65,592.16,188.98,567.57z M120.04,445.03l90.18-39.76
	c0.66-0.29,1.06-0.95,1.02-1.67c-0.28-4.85-0.31-9.78-0.1-14.77c0.17-3.91,1.44-6.72,3.81-8.45c0.3-0.22,0.45-0.51,0.45-0.88
	l0.16-35.81c0.01-1.21-0.63-2.33-1.66-2.94c-22.73-13.45-34.72-36.84-24.18-62.86c0.21-0.5,0.05-1.08-0.38-1.41
	c-2.13-1.62-4.97-3.84-5.35-6.65c-0.39-2.89-0.57-6.81-0.55-11.77c0.07-15.51,0.16-31.08,0.28-46.73c0.01-0.35-0.17-0.55-0.52-0.59
	c-19.25-2.27-34.57-11.14-45.94-26.6c-11.25-15.29-13.67-30.28-13.24-48.94c1.25-11.31,5.09-22,11.52-32.07
	c13.73-21.51,36.89-33.9,62.71-31.15c2.81,0.31,5.68,0.68,8.59,1.12c0.32,0.05,0.64-0.07,0.84-0.32
	c8.25-10.12,17.05-18.41,29.04-23.93c12.07-5.55,24.61-7.35,37.61-5.39c4.53,0.69,9.54,2.19,14.21,3.63
	c0.34,0.11,0.68,0.1,1.01-0.02c22.43-7.85,43.36-5.19,62.81,7.99c8.2,5.56,12.87,10.94,18.44,17.79c0.33,0.4,0.86,0.58,1.37,0.47
	c39.67-8.9,76.86,22.16,80.76,61.77c0.24,4.77,0.26,8.68,0.06,11.75c-2.43,36.8-30.99,64.43-68.19,63.94
	c-0.15,0-0.27,0.12-0.28,0.27c-0.13,14.31-0.29,28.61-0.46,42.91c-0.02,1.85-0.43,3.08-1.22,3.71c-6.26,4.97-11.8,8.75-10.26,17.93
	c0.73,4.31,2.49,8.82,2.84,12.7c0.51,5.77-0.15,11.44-1.97,17.02c-0.44,1.34,0.04,3.83,1.12,5.11c5.55,6.54,15.18,9.6,22.83,4.56
	c1.16-0.76,2.72-0.32,3.31,0.94c2.36,5-3.54,12.82-7.08,15.82c-5.31,4.49-11.44,7.33-18.38,8.52c-0.36,0.06-0.54,0.27-0.53,0.64
	c0.34,11.86,0.74,23.71-5.14,34.39c-2.09,3.79-5.62,7.54-8.59,11.05c-0.38,0.45-0.59,1.02-0.58,1.61l0.13,15.15
	c0.01,0.46,0.28,0.87,0.69,1.05l97.13,41.85l32.69,14.43c0.33,0.15,0.62,0.09,0.87-0.17c1.72-1.81,3.74-4.3,6.05-7.46
	c39.88-54.3,60.43-123.75,52.38-190.5c-8.37-69.29-40.52-128.6-92.83-174.35c-21.27-18.6-45.86-33.4-73.79-44.41
	c-45.87-18.07-92.54-22.81-139.99-14.21c-36.61,6.64-73.94,21.33-104.42,43.24c-33.62,24.17-60.54,54.32-80.77,90.47
	c-15.98,28.55-26.04,61.15-30.57,93.53C17.94,328.33,39.64,404.03,85.2,460.39c0.15,0.19,0.42,0.26,0.64,0.16L120.04,445.03z
	 M156.3,171.71c6.69,9.79,16.09,13.41,27.4,15.09c0.34,0.05,0.51-0.1,0.51-0.44l0.06-5.06c0-0.32-0.16-0.51-0.47-0.57
	c-7.16-1.41-13.1-5.11-17.83-11.1c-1.25-1.59-1.9-2.77-1.95-3.56c-0.3-5.31-1.52-18.54,1.78-22.67c1.87-2.34,4.8-3.18,8.79-2.52
	c9.59,4.69,1.03,12.98,4.78,16.8c2.57,2.62,5.91,3.76,10.01,3.41l20.27-8.16c0.53-0.21,0.8-0.61,0.81-1.18l0.09-19.45
	c3.73-6.61,13.58-6.93,18.83-2.1c3.76,3.46,3.01,10.92,2.88,15.5c-0.02,0.47,0.2,0.64,0.65,0.5l12.88-3.92
	c0.42-0.13,0.7-0.53,0.66-0.97c-0.89-12.44-1.44-23.58-0.82-42.23c0.33-10.2,14.7-11.24,17.01-2.11c0.41,1.59,0.62,3.88,0.63,6.86
	c0.05,11.51-0.01,23.01-0.16,34.48c0,0.09,0.07,0.16,0.16,0.15l18.09-1.8c0.54-0.05,0.82-0.35,0.83-0.9
	c0.15-8.99,0.17-17.81,0.08-26.46c-0.04-4.14,0.33-7.08,1.11-8.81c3.69-8.15,17.53-5.88,17.58,3.59c0.06,10.53-0.01,21.1-0.21,31.7
	c-0.01,0.47,0.22,0.74,0.69,0.8l14.86,1.76c0.35,0.04,0.66-0.23,0.66-0.59c-0.12-12.28-0.14-24.42-0.05-36.42
	c0.02-2.6,0.41-4.66,1.16-6.18c3.93-7.89,15.79-4.3,16.05,4.18c0.41,13.79,0.03,27.69-1.15,41.69c-0.05,0.53,0.28,1.02,0.79,1.17
	l16.25,4.81c0.37,0.11,0.56-0.03,0.57-0.41c0.13-3.5,0.22-7,0.27-10.51c0.17-12.66,19.64-11.48,20.29-0.28
	c0.29,5.17,0.31,10.9,0.05,17.21c-0.07,1.62,0.82,1.87,2.21,1.97c4.71,2.86,9.69,4.97,14.94,6.33c2.87,0.43,5.55-0.01,8.04-1.32
	c7.03-3.7-4.96-17.54,8.89-19.63c8.47,1.03,8.15,6.42,8.38,13.93c0.15,4.74,0.64,11.31-1.98,15.33c-4.88,7.5-17.08,11.78-25.4,12.55
	c-0.47,0.05-0.82,0.45-0.81,0.92l0.09,3.7c0.01,0.57,0.3,0.85,0.87,0.85c13.88,0.02,26.05-4.72,34.17-16.19
	c20.95-25.55,7.55-61.62-20.98-74.74c-6.19-2.85-12.73-4.02-19.62-3.51c-0.38,0.03-0.52,0.22-0.41,0.59
	c2.2,7.51,5.71,21.65-6.54,23.12c-6.4,0.77-9.24-3.29-10.92-8.86c-1.42-4.7-2.89-9.64-5.03-13.71
	c-11.48-21.83-35.59-35.38-60.11-26.12c-3.11,2.75-7.01,3.92-11.72,3.53c-0.63-3.71-3.07-3.63-6-4.53
	c-27.34-8.4-53.97,10.43-61.55,36.68c-1.55,5.38-2.45,12.96-9.47,13.51c-4.54,0.35-7.81-1.17-9.8-4.55
	c-3.16-5.34-1.33-13.4,0.76-19.24c0.12-0.34,0-0.52-0.36-0.54c-17.77-0.75-31.73,5.74-41.89,19.48
	C143.93,130.16,142.69,154.03,156.3,171.71z M241.05,164.16c-13.18,3.77-26.18,9.49-38.92,14.61c-0.25,0.11-0.38,0.3-0.38,0.57
	l0.04,14.73c0,0.25,0.25,0.42,0.48,0.33c12.84-4.97,25.82-9.47,38.94-13.51c8.94-2.18,16.12-3.76,21.54-4.75
	c26.02-4.72,51.67-3.08,76.95,4.91c0.47,0.15,0.66-0.02,0.59-0.51c-0.47-3.26-0.47-6.51,0.02-9.75c0.08-0.53,0.52-0.94,1.05-0.96
	c1.95-0.11,3.91-0.62,5.87-1.55c1.22-0.57,1.33-1.33,0.33-2.27c-0.17-0.16-0.37-0.27-0.58-0.34c-8.83-2.8-17.94-5.82-26.59-7.38
	C293.48,153.42,267.04,155.38,241.05,164.16z M236.28,201.84c-11.79,3.79-23.28,8.2-34.47,13.25c-0.27,0.12-0.4,0.32-0.39,0.61
	l0.27,12.17c0,0.16,0.17,0.28,0.32,0.22l34.36-12.48c26.62-8.26,53.01-11.84,80.38-8c5.81,0.81,13.42,2.32,22.83,4.51
	c0.46,0.11,0.69-0.07,0.68-0.54l-0.1-12.4c-0.01-0.33-0.17-0.56-0.49-0.67c-20.63-6.96-43.25-10.05-64.92-6.68
	C261.82,193.84,248.99,197.18,236.28,201.84z M217.25,237.85l-14.81,5.09c-0.32,0.11-0.48,0.34-0.48,0.67l0.03,14.96
	c0,0.36,0.17,0.48,0.51,0.35l13.94-5.46c13.66-4.47,27.1-9.1,41.07-12.37c5.53-1.3,10.94-3,11.7,4.46
	c0.45,4.4,0.99,12.63-1.91,16.79c-4.1,5.86-11.37,10.9-17.03,15.29c-3.48,2.69-2.89,6.49-5.24,9.42c-1.79,2.22-6.85,6.18-9.55,2.94
	c-1.51-1.81-2.73-3.54-3.68-5.19c-5.88-10.28-19.94-8.97-24.42,1.44c-5.07,11.76,0.59,27.07,11.82,33.16
	c4.87,2.64,9.58,2.54,14.11-0.29c1.21-0.75,2.43-0.14,3.66,1.85c-1.44,4.21-4.19,11.23-1.94,15.3
	c12.26,22.14,35.13,36.17,59.61,40.87c10.43,2.37,20.88,3.32,31.37,2.84c17.27-0.79,33.33-7.23,33.93-27.4
	c0.13-4.53,0.08-8.95-0.17-13.25c-0.02-0.48-0.31-0.92-0.74-1.16c-4.53-2.41-8.66-5.38-12.4-8.91c-0.29-0.27-0.74-0.29-1.05-0.04
	c-16.52,13.43-39.07,15.55-54.83-0.33c-2.98-2.99-7.1-10.09-3.79-14.13c0.72-0.89,1.97-1.15,3-0.64c2.94,1.45,5.98,3.06,9.26,3.2
	c9.31,0.38,15.44-4.43,23.82-9.94c7.98-5.26,17.8-5.15,27.03-2.92c3.92,0.95,9.29-0.66,8.35-5.81c-0.26-1.39-0.95-3.72-2.08-6.97
	c-2.57-7.41-4.97-14.87-7.19-22.38c-1.31-4.42-1.78-7.33-1.43-8.73c1.99-7.87,8.58-10.91,15.89-12.81c0.34-0.09,0.58-0.39,0.59-0.74
	l0.3-11.48c0.01-0.33-0.14-0.54-0.45-0.65c-33.83-12.37-69.76-17.15-105.29-9.53C244.75,228.35,230.91,232.52,217.25,237.85z
	 M232.12,368.21c-0.08-0.1-0.12-0.09-0.12,0.04c0.05,6.09,0.05,12.21,0.02,18.37c-0.01,2.02,0.45,4.16,1.7,5.52
	c12.54,13.73,33.5,22.35,50.97,28.41c1.87,0.65,3.14,0.71,4.84-0.12c3.27-1.58,6.62-3.04,10.03-4.37c0.34-0.13,0.36-0.6,0.04-0.77
	c-11.2-5.73-22.36-11.65-33.48-17.76C253.09,390.38,241.76,380.6,232.12,368.21z M268.42,436.7c-13.96-6.51-27.77-13.23-41.04-21.17
	c-0.32-0.19-0.48-0.1-0.48,0.28l0.12,21.7c0.01,0.36,0.17,0.69,0.44,0.91c1.32,1.05,2.73,1.98,4.22,2.79
	c11.9,6.45,24.06,12.31,36.47,17.57c0.45,0.19,0.68,0.04,0.68-0.46l-0.09-21.12C268.74,436.99,268.62,436.79,268.42,436.7z
	 M395.69,457.96c4.21,1.3,15.13,5.2,15.14,10.62c0.02,20.39-0.03,40.75-0.14,61.08c0,0.19,0.08,0.24,0.25,0.15
	c20.21-11.6,38.86-25.3,55.96-41.09c1.44-1.33,2.96-2.84,4.57-4.52l6.07-6.12c0.26-0.26,0.17-0.7-0.17-0.84L361.8,427.91
	c-0.42-0.18-0.63-0.04-0.63,0.41l0.1,14.23c0,0.53,0.31,1,0.8,1.21c8.46,3.61,16.79,7.26,25,10.95
	C389.99,456.02,392.86,457.11,395.69,457.96z M104.76,484.18c6.77,6.09,11.89,10.59,15.36,13.52c13.72,11.55,28.1,21.81,43.13,30.78
	c0.67,0.4,1,0.21,1-0.57c-0.01-19.64,0.03-39.17,0.11-58.58c0.01-2.63,1.2-4.65,3.56-6.07c3.98-2.39,7.59-4.26,10.82-5.6
	l31.55-13.89c0.31-0.14,0.46-0.38,0.46-0.71l-0.08-13.19c0-0.29-0.29-0.48-0.56-0.39c-1.95,0.68-3.88,1.41-5.77,2.18
	c-31.37,12.87-62.5,26.31-93.39,40.3c-3.8,1.73-8.02,3.32-12.02,5.02c-0.53,0.22-0.65,0.91-0.24,1.31L104.76,484.18z M318.6,431.72
	l-10.22,4.72c-0.38,0.18-0.63,0.56-0.64,0.99l-0.16,20.37c0,0.2,0.21,0.34,0.39,0.25l9.92-4.83c0.68-0.33,1.11-1.02,1.1-1.78
	l-0.18-19.58C318.81,431.7,318.74,431.65,318.6,431.72z M214.15,470.96l-28.59,12.73c-0.07,0.03-0.11,0.1-0.11,0.18l0.12,54.42
	c0,0.64,0.3,1.08,0.89,1.33c15.46,6.46,30.52,10.96,47.37,14.95c25.04,5.93,51.12,7.31,76.72,5.27
	c27.76-2.22,52.98-10.02,78.82-19.9c0.29-0.11,0.43-0.32,0.43-0.62l0.14-54.65c0.13-0.99-0.24-1.8-1.09-2.43
	c-3.96-2.93-8.13-5.48-12.51-7.64c-7.1-3.5-18.02-6.52-26.85-10.3c-1.64-0.71-2.92-0.82-4.45-0.11
	c-10.67,4.94-19.19,11.27-28.45,18.46c-8.78,6.82-18.68,12.14-28.02,17.77c-0.99,0.6-1.97,0.59-2.95-0.02
	c-11.28-7.05-21.94-14.45-32.74-22.17c-4.98-3.55-20.86-14.29-26.13-12.67C223.4,466.59,219.2,468.39,214.15,470.96z"/>
<path class="st1" d="M458.36,446.01c23.23-26.97,39.6-57.62,49.11-91.95c9.06-32.71,11.8-66.11,5.74-99.85
	c-7.45-41.53-25-78.75-52.65-111.68c-2.76-3.29-5.3-5.77-7.63-7.44c-3.9-39.61-41.09-70.67-80.76-61.77
	c-0.51,0.11-1.04-0.07-1.37-0.47c-5.57-6.85-10.24-12.23-18.44-17.79c-19.45-13.18-40.38-15.84-62.81-7.99
	c-0.33,0.12-0.67,0.13-1.01,0.02c-4.67-1.44-9.68-2.94-14.21-3.63c-13-1.96-25.54-0.16-37.61,5.39
	c-11.99,5.52-20.79,13.81-29.04,23.93c-0.2,0.25-0.52,0.37-0.84,0.32c-2.91-0.44-5.78-0.81-8.59-1.12
	c-25.82-2.75-48.98,9.64-62.71,31.15c-6.43,10.07-10.27,20.76-11.52,32.07c-3.59,3.06-7.71,7.58-12.34,13.56
	c-18.58,23.96-33.61,50.76-41.18,79.18c-1.04,3.89-2.05,7.79-3.02,11.68c-4.29,17.19-6.54,34.59-6.75,52.21
	c-0.07,6.49,0.23,13.14,0.9,19.96c4.27,42.89,18.81,81.96,43.6,117.22c3.5,4.99,7.71,10.01,11.71,14.9c0.33,0.41,1.36,0.78,3.1,1.12
	l-34.2,15.52c-0.22,0.1-0.49,0.03-0.64-0.16c-45.56-56.36-67.26-132.06-57.22-203.81c4.53-32.38,14.59-64.98,30.57-93.53
	c20.23-36.15,47.15-66.3,80.77-90.47c30.48-21.91,67.81-36.6,104.42-43.24c47.45-8.6,94.12-3.86,139.99,14.21
	c27.93,11.01,52.52,25.81,73.79,44.41c52.31,45.75,84.46,105.06,92.83,174.35c8.05,66.75-12.5,136.2-52.38,190.5
	c-2.31,3.16-4.33,5.65-6.05,7.46c-0.25,0.26-0.54,0.32-0.87,0.17L458.36,446.01z"/>
<path class="st1" d="M285.26,71.75c2,8.24,13.93,4.34,11.72-3.53c24.52-9.26,48.63,4.29,60.11,26.12c2.14,4.07,3.61,9.01,5.03,13.71
	c1.68,5.57,4.52,9.63,10.92,8.86c12.25-1.47,8.74-15.61,6.54-23.12c-0.11-0.37,0.03-0.56,0.41-0.59c6.89-0.51,13.43,0.66,19.62,3.51
	c28.53,13.12,41.93,49.19,20.98,74.74c1.26-6.79,1.81-13.58,1.65-20.37c-0.13-5.6-1.17-12.9-5.5-17.05
	c-5.3-5.07-12.14-0.07-11.47,6.33c-13.85,2.09-1.86,15.93-8.89,19.63c-2.49,1.31-5.17,1.75-8.04,1.32l1.24-28.3
	c0.05-1.01-0.87-1.79-1.86-1.6l-0.53,0.1c-1.41,0.27-2.5,1.4-2.73,2.82c-1.55,9.61-2.15,15.45-11.06,20.65
	c-1.39-0.1-2.28-0.35-2.21-1.97c0.26-6.31,0.24-12.04-0.05-17.21c-0.65-11.2-20.12-12.38-20.29,0.28
	c-0.05,3.51-0.14,7.01-0.27,10.51c-0.01,0.38-0.2,0.52-0.57,0.41l-16.25-4.81c-0.51-0.15-0.84-0.64-0.79-1.17
	c1.18-14,1.56-27.9,1.15-41.69c-0.26-8.48-12.12-12.07-16.05-4.18c-0.75,1.52-1.14,3.58-1.16,6.18c-0.09,12-0.07,24.14,0.05,36.42
	c0,0.36-0.31,0.63-0.66,0.59l-14.86-1.76c-0.47-0.06-0.7-0.33-0.69-0.8c0.2-10.6,0.27-21.17,0.21-31.7
	c-0.05-9.47-13.89-11.74-17.58-3.59c-0.78,1.73-1.15,4.67-1.11,8.81c0.09,8.65,0.07,17.47-0.08,26.46c-0.01,0.55-0.29,0.85-0.83,0.9
	l-18.09,1.8c-0.09,0.01-0.16-0.06-0.16-0.15c0.15-11.47,0.21-22.97,0.16-34.48c-0.01-2.98-0.22-5.27-0.63-6.86
	c-2.31-9.13-16.68-8.09-17.01,2.11c-0.62,18.65-0.07,29.79,0.82,42.23c0.04,0.44-0.24,0.84-0.66,0.97l-12.88,3.92
	c-0.45,0.14-0.67-0.03-0.65-0.5c0.13-4.58,0.88-12.04-2.88-15.5c-5.25-4.83-15.1-4.51-18.83,2.1c-2.73,1.03-2.44,4.42-2.35,7.28
	c0.13,4.17,0.3,8.07,0.49,11.7c0.07,1.26-1.08,2.23-2.31,1.95c-7.02-1.59-10.93-8.06-12.17-14.81c-0.52-2.82-1.18-7.73-4.35-6.96
	c-0.93,0.22-1.38,0.81-1.35,1.76l0.87,27.87c-4.1,0.35-7.44-0.79-10.01-3.41c-3.75-3.82,4.81-12.11-4.78-16.8
	c-1.08-12.38-13.09-11.38-17.32-1.79c-3.47,7.87-2.21,18.59-1.93,27.09c0.03,0.83,0.17,1.76,0.4,2.77c0.21,0.87,0.4,1.79,0.56,2.76
	c-13.61-17.68-12.37-41.55,0.65-59.15c10.16-13.74,24.12-20.23,41.89-19.48c0.36,0.02,0.48,0.2,0.36,0.54
	c-2.09,5.84-3.92,13.9-0.76,19.24c1.99,3.38,5.26,4.9,9.8,4.55c7.02-0.55,7.92-8.13,9.47-13.51c7.58-26.25,34.21-45.08,61.55-36.68
	C282.19,68.12,284.63,68.04,285.26,71.75z"/>
<path class="st2" d="M296.98,68.22c2.21,7.87-9.72,11.77-11.72,3.53C289.97,72.14,293.87,70.97,296.98,68.22z"/>
<path class="st2" d="M174.59,140.88c-3.99-0.66-6.92,0.18-8.79,2.52c-3.3,4.13-2.08,17.36-1.78,22.67c0.05,0.79,0.7,1.97,1.95,3.56
	c4.73,5.99,10.67,9.69,17.83,11.1c0.31,0.06,0.47,0.25,0.47,0.57l-0.06,5.06c0,0.34-0.17,0.49-0.51,0.44
	c-11.31-1.68-20.71-5.3-27.4-15.09c-0.16-0.97-0.35-1.89-0.56-2.76c-0.23-1.01-0.37-1.94-0.4-2.77c-0.28-8.5-1.54-19.22,1.93-27.09
	C161.5,129.5,173.51,128.5,174.59,140.88z"/>
<path class="st2" d="M420.59,171.45c-8.12,11.47-20.29,16.21-34.17,16.19c-0.57,0-0.86-0.28-0.87-0.85l-0.09-3.7
	c-0.01-0.47,0.34-0.87,0.81-0.92c8.32-0.77,20.52-5.05,25.4-12.55c2.62-4.02,2.13-10.59,1.98-15.33c-0.23-7.51,0.09-12.9-8.38-13.93
	c-0.67-6.4,6.17-11.4,11.47-6.33c4.33,4.15,5.37,11.45,5.5,17.05C422.4,157.87,421.85,164.66,420.59,171.45z"/>
<path class="st3" d="M452.93,135.09c2.33,1.67,4.87,4.15,7.63,7.44c27.65,32.93,45.2,70.15,52.65,111.68
	c6.06,33.74,3.32,67.14-5.74,99.85c-9.51,34.33-25.88,64.98-49.11,91.95l-97.13-41.85c-0.41-0.18-0.68-0.59-0.69-1.05l-0.13-15.15
	c-0.01-0.59,0.2-1.16,0.58-1.61c2.97-3.51,6.5-7.26,8.59-11.05c5.88-10.68,5.48-22.53,5.14-34.39c-0.01-0.37,0.17-0.58,0.53-0.64
	c6.94-1.19,13.07-4.03,18.38-8.52c3.54-3,9.44-10.82,7.08-15.82c-0.59-1.26-2.15-1.7-3.31-0.94c-7.65,5.04-17.28,1.98-22.83-4.56
	c-1.08-1.28-1.56-3.77-1.12-5.11c1.82-5.58,2.48-11.25,1.97-17.02c-0.35-3.88-2.11-8.39-2.84-12.7c-1.54-9.18,4-12.96,10.26-17.93
	c0.79-0.63,1.2-1.86,1.22-3.71c0.17-14.3,0.33-28.6,0.46-42.91c0.01-0.15,0.13-0.27,0.28-0.27c37.2,0.49,65.76-27.14,68.19-63.94
	C453.19,143.77,453.17,139.86,452.93,135.09z"/>
<path class="st3" d="M124.02,135.2c-0.43,18.66,1.99,33.65,13.24,48.94c11.37,15.46,26.69,24.33,45.94,26.6
	c0.35,0.04,0.53,0.24,0.52,0.59c-0.12,15.65-0.21,31.22-0.28,46.73c-0.02,4.96,0.16,8.88,0.55,11.77c0.38,2.81,3.22,5.03,5.35,6.65
	c0.43,0.33,0.59,0.91,0.38,1.41c-10.54,26.02,1.45,49.41,24.18,62.86c1.03,0.61,1.67,1.73,1.66,2.94l-0.16,35.81
	c0,0.37-0.15,0.66-0.45,0.88c-2.37,1.73-3.64,4.54-3.81,8.45c-0.21,4.99-0.18,9.92,0.1,14.77c0.04,0.72-0.36,1.38-1.02,1.67
	l-90.18,39.76c-1.74-0.34-2.77-0.71-3.1-1.12c-4-4.89-8.21-9.91-11.71-14.9c-24.79-35.26-39.33-74.33-43.6-117.22
	c-0.67-6.82-0.97-13.47-0.9-19.96c0.21-17.62,2.46-35.02,6.75-52.21c0.97-3.89,1.98-7.79,3.02-11.68
	c7.57-28.42,22.6-55.22,41.18-79.18C116.31,142.78,120.43,138.26,124.02,135.2z"/>
<path class="st1" d="M241.21,180.89l-0.16-16.73c25.99-8.78,52.43-10.74,79.34-5.87c8.65,1.56,17.76,4.58,26.59,7.38
	c0.21,0.07,0.41,0.18,0.58,0.34c1,0.94,0.89,1.7-0.33,2.27c-1.96,0.93-3.92,1.44-5.87,1.55c-0.53,0.02-0.97,0.43-1.05,0.96
	c-0.49,3.24-0.49,6.49-0.02,9.75c0.07,0.49-0.12,0.66-0.59,0.51c-25.28-7.99-50.93-9.63-76.95-4.91
	C257.33,177.13,250.15,178.71,241.21,180.89z"/>
<path class="st2" d="M241.05,164.16l0.16,16.73c-13.12,4.04-26.1,8.54-38.94,13.51c-0.23,0.09-0.48-0.08-0.48-0.33l-0.04-14.73
	c0-0.27,0.13-0.46,0.38-0.57C214.87,173.65,227.87,167.93,241.05,164.16z"/>
<path class="st1" d="M236.37,215.61c0.59-4.7,0.56-9.29-0.09-13.77c12.71-4.66,25.54-8,38.47-10.01
	c21.67-3.37,44.29-0.28,64.92,6.68c0.32,0.11,0.48,0.34,0.49,0.67l0.1,12.4c0.01,0.47-0.22,0.65-0.68,0.54
	c-9.41-2.19-17.02-3.7-22.83-4.51C289.38,203.77,262.99,207.35,236.37,215.61z"/>
<path class="st2" d="M236.28,201.84c0.65,4.48,0.68,9.07,0.09,13.77l-34.36,12.48c-0.15,0.06-0.32-0.06-0.32-0.22l-0.27-12.17
	c-0.01-0.29,0.12-0.49,0.39-0.61C213,210.04,224.49,205.63,236.28,201.84z"/>
<path class="st1" d="M294.64,377.13c3.14-7.17,2.65-14.19-5.32-17.25c-3.76-1.44-7.5-2.95-11.22-4.52
	c-12.98-5.47-23.87-13.71-32.68-24.72c-3.51-4.39-6.33-7.62-8.45-9.68c-1.23-1.99-2.45-2.6-3.66-1.85
	c-4.53,2.83-9.24,2.93-14.11,0.29c-11.23-6.09-16.89-21.4-11.82-33.16c4.48-10.41,18.54-11.72,24.42-1.44
	c0.95,1.65,2.17,3.38,3.68,5.19c2.7,3.24,7.76-0.72,9.55-2.94c2.35-2.93,1.76-6.73,5.24-9.42c5.66-4.39,12.93-9.43,17.03-15.29
	c2.9-4.16,2.36-12.39,1.91-16.79c-0.76-7.46-6.17-5.76-11.7-4.46c-13.97,3.27-27.41,7.9-41.07,12.37c-0.57-0.14-0.41-0.63,0.48-1.48
	c0.24-0.23,0.38-0.55,0.37-0.87l-0.04-13.26c13.66-5.33,27.5-9.5,41.51-12.5c35.53-7.62,71.46-2.84,105.29,9.53
	c0.31,0.11,0.46,0.32,0.45,0.65l-0.3,11.48c-0.01,0.35-0.25,0.65-0.59,0.74c-7.31,1.9-13.9,4.94-15.89,12.81
	c-0.35,1.4,0.12,4.31,1.43,8.73c2.22,7.51,4.62,14.97,7.19,22.38c1.13,3.25,1.82,5.58,2.08,6.97c0.94,5.15-4.43,6.76-8.35,5.81
	c-9.23-2.23-19.05-2.34-27.03,2.92c-8.38,5.51-14.51,10.32-23.82,9.94c-3.28-0.14-6.32-1.75-9.26-3.2c-1.03-0.51-2.28-0.25-3,0.64
	c-3.31,4.04,0.81,11.14,3.79,14.13c15.76,15.88,38.31,13.76,54.83,0.33c0.31-0.25,0.76-0.23,1.05,0.04c3.74,3.53,7.87,6.5,12.4,8.91
	c0.43,0.24,0.72,0.68,0.74,1.16c0.25,4.3,0.3,8.72,0.17,13.25c-0.6,20.17-16.66,26.61-33.93,27.4
	C315.52,380.45,305.07,379.5,294.64,377.13z M298.63,255.26c-2.69,2.27-4.38,4.48-5.07,6.64c-1.64,5.08-0.3,14.97,7.2,13.69
	c3.01-0.51,6.02-1.05,9.03-1.64c6,0.55,11.67-0.55,17.02-3.32c9.67-5.01,7.67-17.04-2.82-19.52
	C313.9,248.72,305.44,250.11,298.63,255.26z M226.08,304.79c-1.92-3.97,0.3-13.24-4.29-16.89c-4.89-3.89-7.72,1.28-8.05,5.42
	c-0.76,9.42,4.62,24.97,17.23,20.78c0.67-0.22,1.01-0.96,0.74-1.61C230.63,309.82,227.52,307.77,226.08,304.79z"/>
<path class="st2" d="M217.25,237.85l0.04,13.26c0.01,0.32-0.13,0.64-0.37,0.87c-0.89,0.85-1.05,1.34-0.48,1.48l-13.94,5.46
	c-0.34,0.13-0.51,0.01-0.51-0.35l-0.03-14.96c0-0.33,0.16-0.56,0.48-0.67L217.25,237.85z"/>
<path class="st0" d="M309.79,273.95c-10.23-1.83-11.8-9.83-11.16-18.69c6.81-5.15,15.27-6.54,25.36-4.15
	c10.49,2.48,12.49,14.51,2.82,19.52C321.46,273.4,315.79,274.5,309.79,273.95z"/>
<path class="st2" d="M298.63,255.26c-0.64,8.86,0.93,16.86,11.16,18.69c-3.01,0.59-6.02,1.13-9.03,1.64
	c-7.5,1.28-8.84-8.61-7.2-13.69C294.25,259.74,295.94,257.53,298.63,255.26z"/>
<path class="st2" d="M226.08,304.79c1.44,2.98,4.55,5.03,5.63,7.7c0.27,0.65-0.07,1.39-0.74,1.61
	c-12.61,4.19-17.99-11.36-17.23-20.78c0.33-4.14,3.16-9.31,8.05-5.42C226.38,291.55,224.16,300.82,226.08,304.79z"/>
<path class="st2" d="M236.97,320.96c2.12,2.06,4.94,5.29,8.45,9.68c8.81,11.01,19.7,19.25,32.68,24.72
	c3.72,1.57,7.46,3.08,11.22,4.52c7.97,3.06,8.46,10.08,5.32,17.25c-24.48-4.7-47.35-18.73-59.61-40.87
	C232.78,332.19,235.53,325.17,236.97,320.96z"/>
<path class="st2" d="M232.12,368.21c9.64,12.39,20.97,22.17,34,29.32c11.12,6.11,22.28,12.03,33.48,17.76
	c0.32,0.17,0.3,0.64-0.04,0.77c-3.41,1.33-6.76,2.79-10.03,4.37c-1.7,0.83-2.97,0.77-4.84,0.12c-17.47-6.06-38.43-14.68-50.97-28.41
	c-1.25-1.36-1.71-3.5-1.7-5.52c0.03-6.16,0.03-12.28-0.02-18.37C232,368.12,232.04,368.11,232.12,368.21z"/>
<path class="st1" d="M227.38,415.53c13.27,7.94,27.08,14.66,41.04,21.17c0.2,0.09,0.32,0.29,0.32,0.5l0.09,21.12
	c0,0.5-0.23,0.65-0.68,0.46c-12.41-5.26-24.57-11.12-36.47-17.57c-1.49-0.81-2.9-1.74-4.22-2.79c-0.27-0.22-0.43-0.55-0.44-0.91
	l-0.12-21.7C226.9,415.43,227.06,415.34,227.38,415.53z"/>
<path class="st2" d="M471.47,484.2c-1.28-0.43-2.48-0.88-3.6-1.33c-19.32-7.81-38.52-15.89-57.61-24.24
	c-3.18-1.39-6.57-1.71-10.18-0.95c-1.64,0.34-2.87-0.07-4.39,0.28c-2.83-0.85-5.7-1.94-8.62-3.25c-8.21-3.69-16.54-7.34-25-10.95
	c-0.49-0.21-0.8-0.68-0.8-1.21l-0.1-14.23c0-0.45,0.21-0.59,0.63-0.41l115.57,49.33c0.34,0.14,0.43,0.58,0.17,0.84L471.47,484.2z"/>
<path class="st2" d="M178.74,457.66c-1.55,0.15-3.88,0.02-6.99-0.38c-1.59-0.21-4.99,0.41-6.89,1.21
	c-20.11,8.53-40.15,17.1-60.1,25.69l-6.07-5.89c-0.41-0.4-0.29-1.09,0.24-1.31c4-1.7,8.22-3.29,12.02-5.02
	c30.89-13.99,62.02-27.43,93.39-40.3c1.89-0.77,3.82-1.5,5.77-2.18c0.27-0.09,0.56,0.1,0.56,0.39l0.08,13.19
	c0,0.33-0.15,0.57-0.46,0.71L178.74,457.66z"/>
<path class="st1" d="M308.38,436.44l10.22-4.72c0.14-0.07,0.21-0.02,0.21,0.14l0.18,19.58c0.01,0.76-0.42,1.45-1.1,1.78l-9.92,4.83
	c-0.18,0.09-0.39-0.05-0.39-0.25l0.16-20.37C307.75,437,308,436.62,308.38,436.44z"/>
<path class="st1" d="M178.74,457.66c-3.23,1.34-6.84,3.21-10.82,5.6c-2.36,1.42-3.55,3.44-3.56,6.07
	c-0.08,19.41-0.12,38.94-0.11,58.58c0,0.78-0.33,0.97-1,0.57c-15.03-8.97-29.41-19.23-43.13-30.78c-3.47-2.93-8.59-7.43-15.36-13.52
	c19.95-8.59,39.99-17.16,60.1-25.69c1.9-0.8,5.3-1.42,6.89-1.21C174.86,457.68,177.19,457.81,178.74,457.66z"/>
<path class="st1" d="M471.47,484.2c-1.61,1.68-3.13,3.19-4.57,4.52c-17.1,15.79-35.75,29.49-55.96,41.09
	c-0.17,0.09-0.25,0.04-0.25-0.15c0.11-20.33,0.16-40.69,0.14-61.08c-0.01-5.42-10.93-9.32-15.14-10.62
	c1.52-0.35,2.75,0.06,4.39-0.28c3.61-0.76,7-0.44,10.18,0.95c19.09,8.35,38.29,16.43,57.61,24.24
	C468.99,483.32,470.19,483.77,471.47,484.2z"/>
<path class="st2" d="M389.94,484.67c-0.27-0.52-0.96-0.94-2.07-1.25c-0.99-0.28-1.74-0.54-2.23-0.77
	c-6.15-2.88-13.19-5.91-21.13-9.08c-2.01-0.81-3.97-1.33-5.9-1.56c-1.4-0.17-2.88,0.12-4.44,0.86
	c-10.88,5.17-21.8,10.25-32.75,15.26c-9.78,4.48-20.04,9.93-30.17,14.73c-1.78,0.85-3.32,1.37-5.32,0.65
	c-4.28-1.53-8.31-3.71-12.37-5.75c-16.74-8.38-34.22-15.64-51.27-23.39c-2.58-1.17-5.29-2.31-8.14-3.41
	c5.05-2.57,9.25-4.37,12.6-5.4c5.27-1.62,21.15,9.12,26.13,12.67c10.8,7.72,21.46,15.12,32.74,22.17c0.98,0.61,1.96,0.62,2.95,0.02
	c9.34-5.63,19.24-10.95,28.02-17.77c9.26-7.19,17.78-13.52,28.45-18.46c1.53-0.71,2.81-0.6,4.45,0.11
	c8.83,3.78,19.75,6.8,26.85,10.3c4.38,2.16,8.55,4.71,12.51,7.64C389.7,482.87,390.07,483.68,389.94,484.67z"/>
<path class="st1" d="M214.15,470.96c2.85,1.1,5.56,2.24,8.14,3.41c17.05,7.75,34.53,15.01,51.27,23.39
	c4.06,2.04,8.09,4.22,12.37,5.75c2,0.72,3.54,0.2,5.32-0.65c10.13-4.8,20.39-10.25,30.17-14.73c10.95-5.01,21.87-10.09,32.75-15.26
	c1.56-0.74,3.04-1.03,4.44-0.86c1.93,0.23,3.89,0.75,5.9,1.56c7.94,3.17,14.98,6.2,21.13,9.08c0.49,0.23,1.24,0.49,2.23,0.77
	c1.11,0.31,1.8,0.73,2.07,1.25l-0.14,54.65c0,0.3-0.14,0.51-0.43,0.62c-25.84,9.88-51.06,17.68-78.82,19.9
	c-25.6,2.04-51.68,0.66-76.72-5.27c-16.85-3.99-31.91-8.49-47.37-14.95c-0.59-0.25-0.89-0.69-0.89-1.33l-0.12-54.42
	c0-0.08,0.04-0.15,0.11-0.18L214.15,470.96z M355.91,515.59c5.89,0.77,11.31-3.51,12.11-9.55c0.79-6.05-3.34-11.58-9.23-12.36
	c-5.89-0.77-11.31,3.51-12.11,9.55C345.9,509.28,350.03,514.81,355.91,515.59z M216.21,515.55c5.87,0.88,11.37-3.26,12.28-9.27
	c0.91-6.01-3.12-11.6-8.99-12.49c-5.87-0.88-11.37,3.26-12.28,9.27C206.31,509.07,210.34,514.66,216.21,515.55z M269.83,528.56
	c-1.56-8.77-10.17-14.56-19.23-12.95c-9.06,1.61-15.13,10.03-13.57,18.79c1.56,8.77,10.17,14.56,19.23,12.95
	C265.32,545.74,271.39,537.32,269.83,528.56z M340.21,530.08c-0.75-8.8-8.59-15.31-17.5-14.54c-8.91,0.76-15.52,8.51-14.77,17.3
	c0.75,8.8,8.59,15.31,17.5,14.54C334.35,546.62,340.96,538.87,340.21,530.08z"/>
<path class="st0" d="M355.91,515.59c-5.89-0.78-10.02-6.31-9.23-12.36c0.8-6.05,6.22-10.33,12.11-9.55
	c5.89,0.78,10.02,6.31,9.23,12.36C367.23,512.08,361.81,516.36,355.91,515.59z"/>
<path class="st0" d="M216.21,515.55c-5.88-0.89-9.91-6.48-8.99-12.49c0.91-6.01,6.41-10.15,12.28-9.27
	c5.88,0.89,9.91,6.48,8.99,12.49C227.59,512.29,222.09,516.43,216.21,515.55z"/>
<path class="st0" d="M269.83,528.56c1.56,8.76-4.51,17.18-13.57,18.79c-9.06,1.61-17.67-4.18-19.23-12.95
	c-1.56-8.76,4.51-17.18,13.57-18.79C259.66,514,268.27,519.79,269.83,528.56z"/>
<path class="st0" d="M340.21,530.08c0.75,8.79-5.86,16.54-14.77,17.3c-8.91,0.77-16.74-5.74-17.5-14.54
	c-0.75-8.79,5.86-16.54,14.77-17.3C331.62,514.77,339.46,521.28,340.21,530.08z"/>
</svg>
